# xmcd
#
# Track frame offsets: 
#        150
#        13724
#        24103
#        37106
#        52110
#        62681
#        75474
#        88420
#        103989
#        113272
#        125984
#        139620
#        152549
#        166074
#        180968
#        194283
#        204080
#        216236
#        233125
#        245065
#        258157
#        273012
#        285321
#        299385
#        312571
#        325326
#
# Disc length: 4514 seconds
#
# Revision: 3
# Processed by: cddbd v1.5.2PL0 Copyright (c) Steve Scherf et al.
# Submitted via: ExactAudioCopy v1.0b1
#
DISCID=6b11a01a
DTITLE=Jackie Wilson - World's Greatest Melodies - Spotlight
DYEAR=1999
DGENRE=R&B
TTITLE0=Forever And A Day (mono)
TTITLE1=Take My Heart (mono)
TTITLE2=Pianissimo (mono)
TTITLE3=My Eager Heart (mono)
TTITLE4=Each Night I Dream Of You (mono)
TTITLE5=Night (mono)
TTITLE6=My Empty Arms (mono)
TTITLE7=Hearts (mono)
TTITLE8=(You Were Made For) All My Love (mono)
TTITLE9=A Heart Of Love (mono)
TTITLE10=Alone At Last (mono)
TTITLE11=You Thing Of Beauty (mono)
TTITLE12=My Tale Of Woe (mono)
TTITLE13=A Girl Named Tamiko (mono)
TTITLE14=Over The Rainbow (stereo)
TTITLE15=Pledging My Love (stereo)
TTITLE16=Georgia On My Mind (stereo)
TTITLE17=You'll Never Walk Alone (stereo)
TTITLE18=Rags To Riches (stereo)
TTITLE19=You Don't Know Me (stereo)
TTITLE20=What Kind Of Fool Am I? (stereo)
TTITLE21=I Wanna Be Around (stereo)
TTITLE22=Until The Real Thing Comes Along (stereo)
TTITLE23=I Apologize (stereo)
TTITLE24=Lonely Teardrops (stereo)
TTITLE25=We Have Love (stereo)
EXTD=
EXTT0=
EXTT1=
EXTT2=
EXTT3=
EXTT4=
EXTT5=
EXTT6=
EXTT7=
EXTT8=
EXTT9=
EXTT10=
EXTT11=
EXTT12=
EXTT13=
EXTT14=
EXTT15=
EXTT16=
EXTT17=
EXTT18=
EXTT19=
EXTT20=
EXTT21=
EXTT22=
EXTT23=
EXTT24=
EXTT25=
PLAYORDER=
